<svg xmlns="http://www.w3.org/2000/svg" width="480" height="100" viewBox="0 0 480 100">
  <defs>
    <linearGradient id="castleBlue" x1="0" y1="0" x2="0" y2="1">
      <stop offset="0" stop-color="#2E86DE"></stop>
      <stop offset="1" stop-color="#58A6FF"></stop>
    </linearGradient>
    <linearGradient id="shieldWhite" x1="0" y1="0" x2="0" y2="1">
      <stop offset="0" stop-color="#FFFFFF"></stop>
      <stop offset="1" stop-color="#F0F4FF"></stop>
    </linearGradient>
  </defs>

  <!-- Escudo claro -->
  <path d="M70 15c-20 0-40 8-40 8v30c0 24 26 36 40 43 14-7 40-19 40-43V23s-20-8-40-8z" fill="url(#shieldWhite)"></path>

  <!-- Castillo azul -->
  <g fill="url(#castleBlue)">
    <rect x="44" y="52" width="52" height="20" rx="2"></rect>
    <rect x="42" y="38" width="12" height="16" rx="1"></rect>
    <rect x="76" y="38" width="12" height="16" rx="1"></rect>
    <rect x="42" y="34" width="4" height="6"></rect>
    <rect x="48" y="34" width="4" height="6"></rect>
    <rect x="76" y="34" width="4" height="6"></rect>
    <rect x="82" y="34" width="4" height="6"></rect>
    <path d="M63 72v-9a7 7 0 1 1 14 0v9H63z"></path>
  </g>

  <!-- Texto con relleno blanco y contorno azul -->
  <text x="150" y="50" font-family="Poppins, Arial, sans-serif" font-weight="700" font-size="32" fill="#FFFFFF" stroke="#0b3d91" stroke-width="1.8" paint-order="stroke">
    The Clean Castle
  </text>

  <!-- Eslogan: gris claro con contorno azul fino -->
  <text x="152" y="76" font-family="Poppins, Arial, sans-serif" font-size="16" fill="#DDDDDD" stroke="#0b3d91" stroke-width="0.8" paint-order="stroke">
    Calidad en artículos de limpieza
  </text>

  <!-- Subrayado -->
  <rect x="150" y="82" width="300" height="4" rx="2" fill="#E2F0FF"></rect>
</svg>
